HIERARCHY
ROOT Hips
{
	OFFSET 0.00000 0.00000 0.00000
	CHANNELS 6 Xposition Yposition Zposition Yrotation Zrotation Xrotation 
	JOINT Lumbar
	{
		OFFSET 0 0 0
		CHANNELS 3 Zrotation Xrotation Yrotation
		JOINT Neck
		{
			OFFSET 0.00 0.2701 0.00
			CHANNELS 3 Zrotation Xrotation Yrotation
			End Site
			{
				OFFSET 0.00 0.1379 0.00
			}
		}
		JOINT RightShoulder
		{
			OFFSET 0.0119 0.2289 0.1181
			CHANNELS 3 Zrotation Xrotation Yrotation
			JOINT RightElbow
			{
				OFFSET 0.00 -0.1475 0.00
				CHANNELS 2 Zrotation Yrotation
				JOINT RightWrist
				{
					OFFSET 0.00 -0.1605 0.00
					CHANNELS 2 Zrotation Xrotation
					End Site
					{
						OFFSET 0.0040 -0.1068 0.0006
					}
				}
			}
		}
		JOINT LeftShoulder
		{
			OFFSET 0.0119 0.2289 -0.1181
			CHANNELS 3 Zrotation Xrotation Yrotation
			JOINT LeftElbow
			{
				OFFSET 0.00 -0.1475 0.00
				CHANNELS 2 Zrotation Yrotation
				JOINT LeftWrist
				{
					OFFSET 0.00 -0.1605 0.00
					CHANNELS 2 Zrotation Xrotation
					End Site
					{
						OFFSET 0.0040 -0.1068 -0.0006
					}
				}
			}
		}
	}
	JOINT RightHip
	{
		OFFSET 0.0316 -0.0424 0.0458
		CHANNELS 3 Zrotation Xrotation Yrotation
		JOINT RightKnee
		{
			OFFSET 0.00 -0.2438 0.00
			CHANNELS 1 Zrotation
			JOINT RightAnkle
			{
				OFFSET 0.00 -0.2449 0.00
				CHANNELS 3 Zrotation Xrotation Yrotation
				End Site
				{
					OFFSET 0.1237 -0.0542 0.0051
				}
			}
		}
	}
	JOINT LeftHip
	{
		OFFSET 0.0316 -0.0424 -0.0458
		CHANNELS 3 Zrotation Xrotation Yrotation
		JOINT LeftKnee
		{
			OFFSET 0.00 -0.2438 0.00
			CHANNELS 1 Zrotation
			JOINT LeftAnkle
			{
				OFFSET 0.00 -0.2449 0.00
				CHANNELS 3 Zrotation Xrotation Yrotation
				End Site
				{
					OFFSET 0.1237 -0.0542 -0.0051
				}
			}
		}
	}
}
MOTION
Frames: 20
Frame Time: 0.02
-0.25148 0.57274 -0.19128 186.10283 0 -3.12573 2.5836 2.85456 -5.96447 -24.13454 10.31336 6.40479 26.77308 -39.64291 17.36069 16.33073 82.01727 -0.96345 -5.90125 39.86533 27.31281 -13.08898 32.40145 -126.45743 -43.44118 8.99491 -0.40554 7.64732 3.90405 -14.53636 -6.23459 -3.27966 -12.52355 8.75574 6.77252 11.30303 -19.17719 -5.47534 3.6395 10.91873
-0.24877 0.5728 -0.19466 186.23854 0 -3.09799 2.49725 3.29075 -6.07049 -23.73827 9.84699 5.81626 27.80144 -40.77329 13.74652 15.60245 81.9227 -1.37964 -5.35434 40.78871 31.0857 -11.60996 34.78039 -124.77716 -43.21945 8.69033 -0.2298 8.01513 4.9197 -14.39244 -6.53912 -3.09173 -13.64202 9.99686 7.2075 10.8813 -20.90446 -5.67124 3.57269 10.66105
-0.24618 0.573 -0.1978 186.23093 0 -3.00975 2.4346 3.67016 -6.11229 -23.38931 9.41528 5.30092 29.10039 -42.0712 9.67032 14.94536 81.83777 -1.94647 -4.83654 41.64725 34.91259 -9.93791 37.15219 -122.191 -41.68283 8.38557 -0.00709 8.35204 6.36657 -14.33857 -6.90301 -2.87049 -15.11056 11.13443 7.5639 10.63129 -22.465 -5.9644 3.47646 10.24743
-0.24359 0.57315 -0.20099 186.27695 0 -2.94683 2.37116 4.0721 -6.18166 -23.03842 8.97672 4.76423 30.31783 -43.30966 5.87979 14.27584 81.74778 -2.45099 -4.32214 42.58258 38.67978 -8.39144 39.43046 -120.08184 -40.78366 8.09004 0.1865 8.68644 7.54391 -14.23602 -7.23281 -2.6749 -16.33531 12.28533 7.94734 10.30795 -24.04962 -6.18558 3.39805 9.90336
-0.24077 0.57326 -0.2044 186.37621 0 -2.89468 2.26437 4.49109 -6.25939 -22.59878 8.49374 4.17184 31.35159 -44.47942 1.73446 13.51769 81.66339 -2.92841 -3.73666 43.31996 42.62141 -6.67652 42.12826 -117.66314 -39.72648 7.75488 0.40947 9.09095 9.0216 -14.15855 -7.59474 -2.43487 -17.90889 13.58732 8.37068 9.95544 -25.86685 -6.51977 3.30106 9.56276
-0.23847 0.57347 -0.20731 186.32908 0 -2.80609 2.25445 4.86049 -6.30356 -22.35856 8.115 3.71484 32.84556 -45.82995 -1.75005 12.9641 81.56742 -3.50047 -3.30546 44.45465 46.19969 -5.27079 43.94741 -115.68265 -38.68238 7.50198 0.58381 9.34343 9.98539 -14.05413 -7.90334 -2.27872 -18.84794 14.54486 8.6911 9.7092 -27.15106 -6.64551 3.2355 9.18051
-0.23753 0.57397 -0.20896 185.90873 0 -2.61953 2.50024 5.09822 -6.27515 -22.64624 8.00503 3.61623 35.42464 -47.6546 -3.51429 12.9421 81.45111 -4.27324 -3.30597 46.68765 48.79455 -4.75421 43.33007 -115.18983 -37.99487 7.48443 0.61141 9.1654 9.35791 -13.84143 -8.04632 -2.37221 -17.88039 14.59877 8.74466 9.70109 -27.04675 -6.14466 3.26636 8.69799
-0.23713 0.57456 -0.21012 185.34623 0 -2.40012 2.84389 5.28873 -6.21479 -23.13606 8.0015 3.65244 38.48205 -49.65095 -4.55215 13.12693 81.31979 -5.14063 -3.45865 49.32405 51.01141 -4.55769 41.83075 -115.16558 -37.36594 7.54851 0.5891 8.83838 8.21127 -13.6017 -8.13386 -2.54958 -16.27545 14.30472 8.69707 9.79817 -26.40305 -5.43613 3.32932 8.18266
-0.23651 0.57509 -0.21148 184.85047 0 -2.20351 3.14677 5.50636 -6.16524 -23.54101 7.95712 3.62514 41.39507 -51.56012 -5.78123 13.22784 81.18627 -5.97979 -3.53355 51.78621 53.37769 -4.22486 40.7394 -114.89413 -36.70782 7.57001 0.59073 8.59149 7.34676 -13.38291 -8.24901 -2.68216 -15.00767 14.15424 8.69669 9.85631 -25.97604 -4.84062 3.37608 7.69858
-0.23577 0.57569 -0.21292 184.33994 0 -1.97221 3.43493 5.69949 -6.12668 -23.91681 7.88241 3.60662 43.99863 -53.51979 -7.6241 13.2885 81.09213 -6.7607 -3.64585 54.21189 55.84496 -3.85095 39.61154 -114.73002 -36.00944 7.61421 0.58863 8.29184 6.30266 -13.1303 -8.35638 -2.84163 -13.55116 14.06097 8.68891 9.88071 -25.66061 -4.16929 3.429 7.14279
-0.2354 0.57617 -0.21407 183.82929 0 -1.8054 3.77655 5.93154 -6.06154 -24.40223 7.8953 3.60484 47.37037 -55.40531 -7.99614 13.48139 80.91109 -7.68489 -3.71601 56.80504 58.00597 -3.63562 38.35821 -114.47177 -35.43272 7.63105 0.58186 8.0662 5.50316 -12.94095 -8.46565 -2.96555 -12.33232 13.76824 8.6729 10.00088 -24.99041 -3.60589 3.47664 6.72717
-0.23588 0.57629 -0.21457 183.34505 0 -1.83117 4.2428 6.29649 -5.90431 -25.12839 8.12808 3.58203 52.62573 -57.1042 -4.60673 13.98641 80.50976 -8.96708 -3.63175 59.80524 59.45841 -3.83015 36.90763 -113.79043 -35.12451 7.5478 0.57405 8.08893 5.50857 -12.92916 -8.59633 -2.97038 -11.91964 13.00218 8.66509 10.3353 -23.44397 -3.38579 3.50592 6.73781
-0.23672 0.5763 -0.21479 182.86797 0 -1.92205 4.75899 6.6998 -5.72642 -25.96015 8.44452 3.57711 58.65588 -58.70795 0.25682 14.61703 80.02276 -10.39107 -3.49939 62.95142 60.60734 -4.16571 35.37495 -113.01098 -34.9527 7.43497 0.56303 8.18991 5.77508 -12.98206 -8.72999 -2.93688 -11.76721 12.05019 8.65207 10.76571 -21.56702 -3.28198 3.52827 6.88629
-0.2374 0.57637 -0.21513 182.39343 0 -1.97924 5.25186 7.07688 -5.57607 -26.75133 8.71977 3.5866 64.41274 -60.31818 4.53594 15.19191 79.559 -11.7602 -3.38999 66.00379 61.86513 -4.40366 33.92189 -112.31414 -34.76047 7.33879 0.55359 8.25042 5.91875 -13.00755 -8.8603 -2.92125 -11.49825 11.18776 8.63731 11.16799 -19.85866 -3.12813 3.55114 6.95112
-0.23807 0.57641 -0.2155 181.88878 0 -2.05268 5.75162 7.48991 -5.34909 -27.51767 9.01184 3.50719 69.86577 -62.10005 8.50465 15.77018 79.14334 -13.09663 -3.28306 69.18974 63.23104 -4.79059 32.25413 -111.47638 -34.39597 7.23223 0.54226 8.32695 6.06376 -13.0244 -8.99729 -2.90623 -11.20119 10.28819 8.63485 11.51064 -18.04645 -2.95541 3.58579 7.10056
-0.23884 0.57647 -0.21573 181.45118 0 -2.10801 6.24658 7.8372 -5.27578 -28.359 9.28772 3.61352 76.11424 -63.48657 13.42858 16.36628 78.62946 -14.52811 -3.15534 72.12241 64.30647 -4.90103 31.03219 -110.89802 -34.41954 7.13882 0.53435 8.39001 6.27277 -13.07413 -9.12159 -2.88025 -11.03114 9.43082 8.60872 11.99641 -16.38822 -2.85209 3.59439 7.1105
-0.23981 0.57664 -0.21568 181.19172 0 -2.09897 6.72441 7.99861 -5.645 -29.37363 9.49432 4.24371 84.49394 -63.91416 20.9018 17.00061 77.66991 -16.23447 -3.00133 74.35761 64.63942 -4.17541 31.0097 -111.10162 -35.50535 7.09185 0.54027 8.40292 6.6134 -13.20626 -9.21188 -2.82861 -11.165 8.69904 8.50304 12.87265 -15.16061 -2.9148 3.52798 6.67188
-0.24086 0.57684 -0.21549 181.00143 0 -2.0693 7.19363 8.09165 -6.16746 -30.4605 9.68173 5.05638 93.61926 -63.92585 29.23079 17.6449 76.64681 -18.02276 -2.8245 76.32485 64.69544 -3.1733 31.45306 -111.56021 -36.97242 7.05823 0.54942 8.39919 7.00862 -13.36825 -9.28913 -2.76766 -11.41811 8.02459 8.37709 13.88427 -14.11593 -3.04385 3.43632 6.09417
-0.24187 0.57703 -0.21535 180.78338 0 -2.04826 7.66083 8.21318 -6.61109 -31.51856 9.88035 5.77506 102.32249 -64.05521 36.98613 18.26926 75.78639 -19.74158 -2.6436 78.38671 64.88938 -2.31969 31.72121 -111.87173 -38.24893 7.01608 0.55485 8.39976 7.36895 -13.51143 -9.37159 -2.71379 -11.60826 7.34967 8.27108 14.8227 -13.04006 -3.1417 3.35919 5.59936
-0.24293 0.5772 -0.21525 180.54909 0 -2.03275 8.15489 8.34774 -7.0921 -32.56369 10.07239 6.5422 111.41487 -64.48239 45.5743 18.95872 74.37541 -21.59963 -2.51868 80.56429 65.02033 -1.37011 31.83082 -112.30938 -39.60294 6.98309 0.56921 8.41667 7.78013 -13.67779 -9.45757 -2.64693 -11.84249 6.56047 8.11963 15.81912 -11.73409 -3.24791 3.26894 5.02486
